<svg width="181" height="54" viewBox="0 0 181 54" fill="none" xmlns="http://www.w3.org/2000/svg">
<path d="M3.8125 37.0469C3.0625 37.0469 2.6875 36.8438 2.6875 36.4375V18.1094C2.6875 17.6927 3.0625 17.4844 3.8125 17.4844H4.03125C4.77083 17.4844 5.14062 17.6927 5.14062 18.1094V26.6094H5.25L12.0781 17.8906C12.2031 17.7552 12.401 17.6562 12.6719 17.5938C12.9531 17.5208 13.2604 17.4844 13.5938 17.4844H13.8594C14.1719 17.4844 14.4115 17.5208 14.5781 17.5938C14.7448 17.6667 14.8281 17.7552 14.8281 17.8594C14.8281 18.026 14.7396 18.2135 14.5625 18.4219L7.625 27.0781L16.0312 36.2188C16.1979 36.3958 16.2812 36.5417 16.2812 36.6562C16.2812 36.8125 16.1875 36.9167 16 36.9688C15.8229 37.0208 15.5104 37.0469 15.0625 37.0469H14.7188C14.3229 37.0469 14.0052 37.026 13.7656 36.9844C13.5365 36.9427 13.349 36.8438 13.2031 36.6875L5.25 27.75H5.14062V36.4375C5.14062 36.8438 4.77083 37.0469 4.03125 37.0469H3.8125ZM22.1094 37.1562C20.6927 37.1562 19.5469 36.8073 18.6719 36.1094C17.7969 35.4115 17.3594 34.375 17.3594 33C17.3594 31.5521 17.8021 30.4635 18.6875 29.7344C19.5729 28.9948 20.651 28.5208 21.9219 28.3125C23.2031 28.0938 24.7552 27.9688 26.5781 27.9375V26.625C26.5781 25.9271 26.3385 25.3698 25.8594 24.9531C25.3906 24.526 24.6146 24.3125 23.5312 24.3125C22.7083 24.3125 21.9844 24.4115 21.3594 24.6094C20.7448 24.7969 20.1667 25.026 19.625 25.2969C19.3958 25.4115 19.2552 25.4688 19.2031 25.4688C19.0781 25.4688 18.9375 25.3802 18.7812 25.2031C18.6354 25.0156 18.5052 24.8073 18.3906 24.5781C18.2865 24.349 18.2344 24.1823 18.2344 24.0781C18.2344 23.8385 18.4792 23.5781 18.9688 23.2969C19.4688 23.0156 20.1198 22.7812 20.9219 22.5938C21.724 22.4062 22.5625 22.3125 23.4375 22.3125C25.1771 22.3125 26.526 22.6927 27.4844 23.4531C28.4427 24.2135 28.9219 25.2812 28.9219 26.6562V32.8906C28.9219 34.099 28.974 34.974 29.0781 35.5156C29.1927 36.0469 29.25 36.3385 29.25 36.3906C29.25 36.6198 29.0729 36.7865 28.7188 36.8906C28.375 36.9844 28.0521 37.0312 27.75 37.0312C27.5 37.0312 27.3125 36.8906 27.1875 36.6094C27.0729 36.3281 26.9583 35.9219 26.8438 35.3906L26.7812 35.0781C26.2083 35.7135 25.5312 36.2188 24.75 36.5938C23.9792 36.9688 23.099 37.1562 22.1094 37.1562ZM22.2344 35.1406C23.151 35.1406 23.9323 34.974 24.5781 34.6406C25.224 34.3073 25.8906 33.8333 26.5781 33.2188V29.9375C25.2031 29.9479 24.0729 30.0052 23.1875 30.1094C22.3021 30.2135 21.526 30.4792 20.8594 30.9062C20.1927 31.3229 19.8594 31.974 19.8594 32.8594C19.8594 33.599 20.0573 34.1667 20.4531 34.5625C20.8594 34.9479 21.4531 35.1406 22.2344 35.1406ZM34.6719 37.0469C34.276 37.0469 33.9896 37 33.8125 36.9062C33.6354 36.8021 33.5469 36.6458 33.5469 36.4375V26.6875C33.5469 25.4792 33.4896 24.6094 33.375 24.0781C33.2604 23.5365 33.2031 23.2396 33.2031 23.1875C33.2031 22.9583 33.375 22.7969 33.7188 22.7031C34.0729 22.599 34.4062 22.5469 34.7188 22.5469C34.9792 22.5469 35.1719 22.6875 35.2969 22.9688C35.4219 23.25 35.5104 23.5365 35.5625 23.8281C35.625 24.1198 35.6667 24.3073 35.6875 24.3906C36.2708 23.7344 36.9427 23.224 37.7031 22.8594C38.474 22.4948 39.25 22.3125 40.0312 22.3125C41.4479 22.3125 42.5521 22.7135 43.3438 23.5156C44.1458 24.3073 44.5469 25.401 44.5469 26.7969V36.4375C44.5469 36.6458 44.4583 36.8021 44.2812 36.9062C44.1042 37 43.8229 37.0469 43.4375 37.0469H43.3125C42.9375 37.0469 42.6615 37 42.4844 36.9062C42.3073 36.8021 42.2188 36.6458 42.2188 36.4375V27.0312C42.2188 26.1771 41.9688 25.5156 41.4688 25.0469C40.9792 24.5677 40.2865 24.3281 39.3906 24.3281C38.7656 24.3281 38.1354 24.5052 37.5 24.8594C36.875 25.2031 36.3333 25.6771 35.875 26.2812V36.4375C35.875 36.6458 35.7865 36.8021 35.6094 36.9062C35.4323 37 35.1562 37.0469 34.7812 37.0469H34.6719ZM53.6562 42.8906C51.8854 42.8906 50.4844 42.6146 49.4531 42.0625C48.4219 41.5104 47.9062 40.6406 47.9062 39.4531C47.9062 38.6406 48.1406 37.9323 48.6094 37.3281C49.0781 36.724 49.6875 36.2708 50.4375 35.9688L50.4688 35.9062C50.1042 35.625 49.8229 35.3021 49.625 34.9375C49.4375 34.5729 49.3438 34.1406 49.3438 33.6406C49.3438 32.4323 49.8646 31.4635 50.9062 30.7344C50.125 30.3594 49.5312 29.8333 49.125 29.1562C48.7188 28.4688 48.5156 27.6979 48.5156 26.8438C48.5156 25.9896 48.724 25.2188 49.1406 24.5312C49.5677 23.8438 50.1927 23.3021 51.0156 22.9062C51.8385 22.5104 52.8281 22.3125 53.9844 22.3125C54.599 22.3125 55.1458 22.3646 55.625 22.4688H60.6719C60.8698 22.4688 61.0104 22.5365 61.0938 22.6719C61.1875 22.7969 61.2344 23.0052 61.2344 23.2969V23.6406C61.2344 23.9323 61.1875 24.1458 61.0938 24.2812C61.0104 24.4062 60.8698 24.4688 60.6719 24.4688C59.974 24.4688 59.3281 24.4427 58.7344 24.3906L58.7031 24.4375C58.9427 24.7708 59.1198 25.1458 59.2344 25.5625C59.3594 25.9688 59.4219 26.3958 59.4219 26.8438C59.4219 27.6979 59.2083 28.4688 58.7812 29.1562C58.3646 29.8438 57.7448 30.3854 56.9219 30.7812C56.1094 31.1771 55.1198 31.375 53.9531 31.375C53.0781 31.4062 52.4167 31.5677 51.9688 31.8594C51.5312 32.151 51.3125 32.6302 51.3125 33.2969C51.3125 33.7865 51.4688 34.1615 51.7812 34.4219C52.1042 34.6823 52.5052 34.8646 52.9844 34.9688C53.4635 35.0729 54.1302 35.1719 54.9844 35.2656L55.7969 35.3594C56.6615 35.474 57.3854 35.6302 57.9688 35.8281C58.5521 36.026 59.0312 36.3542 59.4062 36.8125C59.7917 37.2708 59.9844 37.901 59.9844 38.7031C59.9844 40.0469 59.4479 41.0781 58.375 41.7969C57.3021 42.526 55.7292 42.8906 53.6562 42.8906ZM53.9531 29.5312C54.974 29.5312 55.7865 29.3229 56.3906 28.9062C56.9948 28.4896 57.2969 27.8073 57.2969 26.8594C57.2969 25.0677 56.1823 24.1719 53.9531 24.1719C51.7552 24.1719 50.6562 25.0677 50.6562 26.8594C50.6562 27.8073 50.9531 28.4896 51.5469 28.9062C52.151 29.3229 52.9531 29.5312 53.9531 29.5312ZM53.9531 41C55.2448 41 56.2031 40.8281 56.8281 40.4844C57.4531 40.151 57.7656 39.6406 57.7656 38.9531C57.7656 38.5052 57.599 38.1562 57.2656 37.9062C56.9323 37.6667 56.5208 37.4948 56.0312 37.3906C55.5521 37.2969 54.9167 37.2083 54.125 37.125C53.5833 37.0625 53.1354 37.0052 52.7812 36.9531C52.4375 36.901 52.1198 36.8281 51.8281 36.7344C50.599 37.2552 49.9844 38.0104 49.9844 39C49.9844 40.3333 51.3073 41 53.9531 41ZM67.9219 37.1562C66.5052 37.1562 65.3594 36.8073 64.4844 36.1094C63.6094 35.4115 63.1719 34.375 63.1719 33C63.1719 31.5521 63.6146 30.4635 64.5 29.7344C65.3854 28.9948 66.4635 28.5208 67.7344 28.3125C69.0156 28.0938 70.5677 27.9688 72.3906 27.9375V26.625C72.3906 25.9271 72.151 25.3698 71.6719 24.9531C71.2031 24.526 70.4271 24.3125 69.3438 24.3125C68.5208 24.3125 67.7969 24.4115 67.1719 24.6094C66.5573 24.7969 65.9792 25.026 65.4375 25.2969C65.2083 25.4115 65.0677 25.4688 65.0156 25.4688C64.8906 25.4688 64.75 25.3802 64.5938 25.2031C64.4479 25.0156 64.3177 24.8073 64.2031 24.5781C64.099 24.349 64.0469 24.1823 64.0469 24.0781C64.0469 23.8385 64.2917 23.5781 64.7812 23.2969C65.2812 23.0156 65.9323 22.7812 66.7344 22.5938C67.5365 22.4062 68.375 22.3125 69.25 22.3125C70.9896 22.3125 72.3385 22.6927 73.2969 23.4531C74.2552 24.2135 74.7344 25.2812 74.7344 26.6562V32.8906C74.7344 34.099 74.7865 34.974 74.8906 35.5156C75.0052 36.0469 75.0625 36.3385 75.0625 36.3906C75.0625 36.6198 74.8854 36.7865 74.5312 36.8906C74.1875 36.9844 73.8646 37.0312 73.5625 37.0312C73.3125 37.0312 73.125 36.8906 73 36.6094C72.8854 36.3281 72.7708 35.9219 72.6562 35.3906L72.5938 35.0781C72.0208 35.7135 71.3438 36.2188 70.5625 36.5938C69.7917 36.9688 68.9115 37.1562 67.9219 37.1562ZM68.0469 35.1406C68.9635 35.1406 69.7448 34.974 70.3906 34.6406C71.0365 34.3073 71.7031 33.8333 72.3906 33.2188V29.9375C71.0156 29.9479 69.8854 30.0052 69 30.1094C68.1146 30.2135 67.3385 30.4792 66.6719 30.9062C66.0052 31.3229 65.6719 31.974 65.6719 32.8594C65.6719 33.599 65.8698 34.1667 66.2656 34.5625C66.6719 34.9479 67.2656 35.1406 68.0469 35.1406ZM80.5938 37.0469C80.1979 37.0469 79.9115 37 79.7344 36.9062C79.5573 36.8021 79.4688 36.6458 79.4688 36.4375V26.6875C79.4688 25.4792 79.4115 24.6094 79.2969 24.0781C79.1823 23.5365 79.125 23.2396 79.125 23.1875C79.125 22.9583 79.2969 22.7969 79.6406 22.7031C79.9948 22.599 80.3281 22.5469 80.6406 22.5469C80.8906 22.5469 81.0781 22.6823 81.2031 22.9531C81.3281 23.2135 81.4375 23.5833 81.5312 24.0625L81.6094 24.3906C82.599 23.0052 83.6719 22.3125 84.8281 22.3125C85.3594 22.3125 85.7604 22.4115 86.0312 22.6094C86.3021 22.7969 86.4375 23.0521 86.4375 23.375C86.4375 23.6875 86.3802 24.0208 86.2656 24.375C86.1615 24.7188 86.0365 24.8906 85.8906 24.8906C85.8177 24.8906 85.6875 24.8594 85.5 24.7969C85.3333 24.724 85.1667 24.6719 85 24.6406C84.8333 24.599 84.6198 24.5781 84.3594 24.5781C83.9323 24.5781 83.526 24.7031 83.1406 24.9531C82.7656 25.2031 82.4479 25.4792 82.1875 25.7812C81.9271 26.0833 81.7969 26.25 81.7969 26.2812V36.4375C81.7969 36.6458 81.7083 36.8021 81.5312 36.9062C81.3542 37 81.0781 37.0469 80.7031 37.0469H80.5938ZM95.0938 37.1562C93 37.1562 91.401 36.5312 90.2969 35.2812C89.2031 34.0208 88.6562 32.1927 88.6562 29.7969C88.6562 27.401 89.2135 25.5573 90.3281 24.2656C91.4427 22.9635 93.0312 22.3125 95.0938 22.3125C97.1354 22.3125 98.6979 22.9583 99.7812 24.25C100.865 25.5312 101.406 27.3802 101.406 29.7969C101.406 32.2031 100.87 34.0312 99.7969 35.2812C98.7344 36.5312 97.1667 37.1562 95.0938 37.1562ZM95.0156 35.1562C96.3698 35.1562 97.3698 34.7188 98.0156 33.8438C98.6615 32.9583 98.9844 31.5938 98.9844 29.75C98.9844 27.8958 98.6615 26.526 98.0156 25.6406C97.3698 24.7552 96.3698 24.3125 95.0156 24.3125C93.6719 24.3125 92.6823 24.7552 92.0469 25.6406C91.4115 26.5156 91.0938 27.8854 91.0938 29.75C91.0938 31.6042 91.4062 32.9688 92.0312 33.8438C92.6667 34.7188 93.6615 35.1562 95.0156 35.1562ZM110.906 37.1562C108.812 37.1562 107.214 36.5312 106.109 35.2812C105.016 34.0208 104.469 32.1927 104.469 29.7969C104.469 27.401 105.026 25.5573 106.141 24.2656C107.255 22.9635 108.844 22.3125 110.906 22.3125C112.948 22.3125 114.51 22.9583 115.594 24.25C116.677 25.5312 117.219 27.3802 117.219 29.7969C117.219 32.2031 116.682 34.0312 115.609 35.2812C114.547 36.5312 112.979 37.1562 110.906 37.1562ZM110.828 35.1562C112.182 35.1562 113.182 34.7188 113.828 33.8438C114.474 32.9583 114.797 31.5938 114.797 29.75C114.797 27.8958 114.474 26.526 113.828 25.6406C113.182 24.7552 112.182 24.3125 110.828 24.3125C109.484 24.3125 108.495 24.7552 107.859 25.6406C107.224 26.5156 106.906 27.8854 106.906 29.75C106.906 31.6042 107.219 32.9688 107.844 33.8438C108.479 34.7188 109.474 35.1562 110.828 35.1562ZM125.891 37.0469C124.776 37.0469 124.219 36.7552 124.219 36.1719V21.1875H119.812C119.521 21.1875 119.307 21.0781 119.172 20.8594C119.047 20.6406 118.984 20.2865 118.984 19.7969V18.9531C118.984 18.4635 119.047 18.1094 119.172 17.8906C119.307 17.6719 119.521 17.5625 119.812 17.5625H132.953C133.245 17.5625 133.453 17.6719 133.578 17.8906C133.714 18.1094 133.781 18.4635 133.781 18.9531V19.7969C133.781 20.2865 133.714 20.6406 133.578 20.8594C133.453 21.0781 133.245 21.1875 132.953 21.1875H128.531V36.1719C128.531 36.7552 127.974 37.0469 126.859 37.0469H125.891ZM141.203 37.2344C139.005 37.2344 137.328 36.5885 136.172 35.2969C135.026 34.0052 134.453 32.1458 134.453 29.7188C134.453 27.3021 135.026 25.4531 136.172 24.1719C137.328 22.8906 139.005 22.25 141.203 22.25C143.401 22.25 145.068 22.8906 146.203 24.1719C147.349 25.4427 147.922 27.2917 147.922 29.7188C147.922 32.1458 147.349 34.0052 146.203 35.2969C145.068 36.5885 143.401 37.2344 141.203 37.2344ZM141.203 33.9688C142.078 33.9688 142.719 33.6146 143.125 32.9062C143.542 32.1979 143.75 31.1354 143.75 29.7188C143.75 28.3125 143.542 27.2552 143.125 26.5469C142.719 25.8385 142.078 25.4844 141.203 25.4844C139.474 25.4844 138.609 26.8958 138.609 29.7188C138.609 31.125 138.818 32.1875 139.234 32.9062C139.661 33.6146 140.318 33.9688 141.203 33.9688ZM155.469 37.2344C154.458 37.2344 153.557 36.9427 152.766 36.3594C151.984 35.7656 151.37 34.9062 150.922 33.7812C150.484 32.6458 150.266 31.2917 150.266 29.7188C150.266 28.2083 150.495 26.8906 150.953 25.7656C151.411 24.6406 152.078 23.776 152.953 23.1719C153.839 22.5573 154.896 22.25 156.125 22.25C157.229 22.25 158.172 22.5365 158.953 23.1094V16.9531C158.953 16.349 159.51 16.0469 160.625 16.0469H161.406C161.979 16.0469 162.396 16.125 162.656 16.2812C162.927 16.4271 163.062 16.651 163.062 16.9531V32.0938C163.062 32.9583 163.083 33.6302 163.125 34.1094C163.177 34.5885 163.245 35.0625 163.328 35.5312C163.38 35.8125 163.406 36.0104 163.406 36.125C163.406 36.3333 163.208 36.5052 162.812 36.6406C162.427 36.776 161.984 36.875 161.484 36.9375C160.995 37 160.599 37.0312 160.297 37.0312C159.974 37.0312 159.745 36.9062 159.609 36.6562C159.484 36.4062 159.37 36.0417 159.266 35.5625L159.172 35.1406C158.839 35.7552 158.344 36.2604 157.688 36.6562C157.031 37.0417 156.292 37.2344 155.469 37.2344ZM156.688 33.8594C157.562 33.8594 158.318 33.3125 158.953 32.2188V26.0156C158.297 25.6615 157.651 25.4844 157.016 25.4844C155.286 25.4844 154.422 26.8958 154.422 29.7188C154.422 32.4792 155.177 33.8594 156.688 33.8594ZM172.734 37.2344C170.536 37.2344 168.859 36.5885 167.703 35.2969C166.557 34.0052 165.984 32.1458 165.984 29.7188C165.984 27.3021 166.557 25.4531 167.703 24.1719C168.859 22.8906 170.536 22.25 172.734 22.25C174.932 22.25 176.599 22.8906 177.734 24.1719C178.88 25.4427 179.453 27.2917 179.453 29.7188C179.453 32.1458 178.88 34.0052 177.734 35.2969C176.599 36.5885 174.932 37.2344 172.734 37.2344ZM172.734 33.9688C173.609 33.9688 174.25 33.6146 174.656 32.9062C175.073 32.1979 175.281 31.1354 175.281 29.7188C175.281 28.3125 175.073 27.2552 174.656 26.5469C174.25 25.8385 173.609 25.4844 172.734 25.4844C171.005 25.4844 170.141 26.8958 170.141 29.7188C170.141 31.125 170.349 32.1875 170.766 32.9062C171.193 33.6146 171.849 33.9688 172.734 33.9688Z" fill="#FD6E31"/>
</svg>
